<?xml version="1.0" encoding="utf-8" standalone="no"?>
<!DOCTYPE svg PUBLIC "-//W3C//DTD SVG 1.1//EN"
  "http://www.w3.org/Graphics/SVG/1.1/DTD/svg11.dtd">
<svg xmlns:xlink="http://www.w3.org/1999/xlink" width="432pt" height="288pt" viewBox="0 0 432 288" xmlns="http://www.w3.org/2000/svg" version="1.1">
 <metadata>
  <rdf:RDF xmlns:dc="http://purl.org/dc/elements/1.1/" xmlns:cc="http://creativecommons.org/ns#" xmlns:rdf="http://www.w3.org/1999/02/22-rdf-syntax-ns#">
   <cc:Work>
    <dc:type rdf:resource="http://purl.org/dc/dcmitype/StillImage"/>
    <dc:date>2022-02-15T01:42:07.750964</dc:date>
    <dc:format>image/svg+xml</dc:format>
    <dc:creator>
     <cc:Agent>
      <dc:title>Matplotlib v3.5.0, https://matplotlib.org/</dc:title>
     </cc:Agent>
    </dc:creator>
   </cc:Work>
  </rdf:RDF>
 </metadata>
 <defs>
  <style type="text/css">*{stroke-linejoin: round; stroke-linecap: butt}</style>
 </defs>
 <g id="figure_1">
  <g id="patch_1">
   <path d="M 0 288 
L 432 288 
L 432 0 
L 0 0 
z
" style="fill: #ffffff"/>
  </g>
  <g id="axes_1">
   <g id="patch_2">
    <path d="M 48.55 260.2 
L 415.177958 260.2 
L 415.177958 26.8 
L 48.55 26.8 
z
" style="fill: #ffffff"/>
   </g>
   <g id="matplotlib.axis_1">
    <g id="xtick_1">
     <g id="line2d_1">
      <defs>
       <path id="m9bfd026f60" d="M 0 0 
L 0 3.5 
" style="stroke: #000000; stroke-width: 0.8"/>
      </defs>
      <g>
       <use xlink:href="#m9bfd026f60" x="411.756685" y="260.2" style="stroke: #000000; stroke-width: 0.8"/>
      </g>
     </g>
     <g id="text_1">
      <!-- 280 -->
      <g transform="translate(402.212935 274.798437)scale(0.1 -0.1)">
       <defs>
        <path id="DejaVuSans-32" d="M 1228 531 
L 3431 531 
L 3431 0 
L 469 0 
L 469 531 
Q 828 903 1448 1529 
Q 2069 2156 2228 2338 
Q 2531 2678 2651 2914 
Q 2772 3150 2772 3378 
Q 2772 3750 2511 3984 
Q 2250 4219 1831 4219 
Q 1534 4219 1204 4116 
Q 875 4013 500 3803 
L 500 4441 
Q 881 4594 1212 4672 
Q 1544 4750 1819 4750 
Q 2544 4750 2975 4387 
Q 3406 4025 3406 3419 
Q 3406 3131 3298 2873 
Q 3191 2616 2906 2266 
Q 2828 2175 2409 1742 
Q 1991 1309 1228 531 
z
" transform="scale(0.015625)"/>
        <path id="DejaVuSans-38" d="M 2034 2216 
Q 1584 2216 1326 1975 
Q 1069 1734 1069 1313 
Q 1069 891 1326 650 
Q 1584 409 2034 409 
Q 2484 409 2743 651 
Q 3003 894 3003 1313 
Q 3003 1734 2745 1975 
Q 2488 2216 2034 2216 
z
M 1403 2484 
Q 997 2584 770 2862 
Q 544 3141 544 3541 
Q 544 4100 942 4425 
Q 1341 4750 2034 4750 
Q 2731 4750 3128 4425 
Q 3525 4100 3525 3541 
Q 3525 3141 3298 2862 
Q 3072 2584 2669 2484 
Q 3125 2378 3379 2068 
Q 3634 1759 3634 1313 
Q 3634 634 3220 271 
Q 2806 -91 2034 -91 
Q 1263 -91 848 271 
Q 434 634 434 1313 
Q 434 1759 690 2068 
Q 947 2378 1403 2484 
z
M 1172 3481 
Q 1172 3119 1398 2916 
Q 1625 2713 2034 2713 
Q 2441 2713 2670 2916 
Q 2900 3119 2900 3481 
Q 2900 3844 2670 4047 
Q 2441 4250 2034 4250 
Q 1625 4250 1398 4047 
Q 1172 3844 1172 3481 
z
" transform="scale(0.015625)"/>
        <path id="DejaVuSans-30" d="M 2034 4250 
Q 1547 4250 1301 3770 
Q 1056 3291 1056 2328 
Q 1056 1369 1301 889 
Q 1547 409 2034 409 
Q 2525 409 2770 889 
Q 3016 1369 3016 2328 
Q 3016 3291 2770 3770 
Q 2525 4250 2034 4250 
z
M 2034 4750 
Q 2819 4750 3233 4129 
Q 3647 3509 3647 2328 
Q 3647 1150 3233 529 
Q 2819 -91 2034 -91 
Q 1250 -91 836 529 
Q 422 1150 422 2328 
Q 422 3509 836 4129 
Q 1250 4750 2034 4750 
z
" transform="scale(0.015625)"/>
       </defs>
       <use xlink:href="#DejaVuSans-32"/>
       <use xlink:href="#DejaVuSans-38" x="63.623047"/>
       <use xlink:href="#DejaVuSans-30" x="127.246094"/>
      </g>
     </g>
    </g>
    <g id="xtick_2">
     <g id="line2d_2">
      <g>
       <use xlink:href="#m9bfd026f60" x="367.611236" y="260.2" style="stroke: #000000; stroke-width: 0.8"/>
      </g>
     </g>
     <g id="text_2">
      <!-- 281 -->
      <g transform="translate(358.067486 274.798437)scale(0.1 -0.1)">
       <defs>
        <path id="DejaVuSans-31" d="M 794 531 
L 1825 531 
L 1825 4091 
L 703 3866 
L 703 4441 
L 1819 4666 
L 2450 4666 
L 2450 531 
L 3481 531 
L 3481 0 
L 794 0 
L 794 531 
z
" transform="scale(0.015625)"/>
       </defs>
       <use xlink:href="#DejaVuSans-32"/>
       <use xlink:href="#DejaVuSans-38" x="63.623047"/>
       <use xlink:href="#DejaVuSans-31" x="127.246094"/>
      </g>
     </g>
    </g>
    <g id="xtick_3">
     <g id="line2d_3">
      <g>
       <use xlink:href="#m9bfd026f60" x="323.465786" y="260.2" style="stroke: #000000; stroke-width: 0.8"/>
      </g>
     </g>
     <g id="text_3">
      <!-- 282 -->
      <g transform="translate(313.922036 274.798437)scale(0.1 -0.1)">
       <use xlink:href="#DejaVuSans-32"/>
       <use xlink:href="#DejaVuSans-38" x="63.623047"/>
       <use xlink:href="#DejaVuSans-32" x="127.246094"/>
      </g>
     </g>
    </g>
    <g id="xtick_4">
     <g id="line2d_4">
      <g>
       <use xlink:href="#m9bfd026f60" x="279.320337" y="260.2" style="stroke: #000000; stroke-width: 0.8"/>
      </g>
     </g>
     <g id="text_4">
      <!-- 283 -->
      <g transform="translate(269.776587 274.798437)scale(0.1 -0.1)">
       <defs>
        <path id="DejaVuSans-33" d="M 2597 2516 
Q 3050 2419 3304 2112 
Q 3559 1806 3559 1356 
Q 3559 666 3084 287 
Q 2609 -91 1734 -91 
Q 1441 -91 1130 -33 
Q 819 25 488 141 
L 488 750 
Q 750 597 1062 519 
Q 1375 441 1716 441 
Q 2309 441 2620 675 
Q 2931 909 2931 1356 
Q 2931 1769 2642 2001 
Q 2353 2234 1838 2234 
L 1294 2234 
L 1294 2753 
L 1863 2753 
Q 2328 2753 2575 2939 
Q 2822 3125 2822 3475 
Q 2822 3834 2567 4026 
Q 2313 4219 1838 4219 
Q 1578 4219 1281 4162 
Q 984 4106 628 3988 
L 628 4550 
Q 988 4650 1302 4700 
Q 1616 4750 1894 4750 
Q 2613 4750 3031 4423 
Q 3450 4097 3450 3541 
Q 3450 3153 3228 2886 
Q 3006 2619 2597 2516 
z
" transform="scale(0.015625)"/>
       </defs>
       <use xlink:href="#DejaVuSans-32"/>
       <use xlink:href="#DejaVuSans-38" x="63.623047"/>
       <use xlink:href="#DejaVuSans-33" x="127.246094"/>
      </g>
     </g>
    </g>
    <g id="xtick_5">
     <g id="line2d_5">
      <g>
       <use xlink:href="#m9bfd026f60" x="235.174887" y="260.2" style="stroke: #000000; stroke-width: 0.8"/>
      </g>
     </g>
     <g id="text_5">
      <!-- 284 -->
      <g transform="translate(225.631137 274.798437)scale(0.1 -0.1)">
       <defs>
        <path id="DejaVuSans-34" d="M 2419 4116 
L 825 1625 
L 2419 1625 
L 2419 4116 
z
M 2253 4666 
L 3047 4666 
L 3047 1625 
L 3713 1625 
L 3713 1100 
L 3047 1100 
L 3047 0 
L 2419 0 
L 2419 1100 
L 313 1100 
L 313 1709 
L 2253 4666 
z
" transform="scale(0.015625)"/>
       </defs>
       <use xlink:href="#DejaVuSans-32"/>
       <use xlink:href="#DejaVuSans-38" x="63.623047"/>
       <use xlink:href="#DejaVuSans-34" x="127.246094"/>
      </g>
     </g>
    </g>
    <g id="xtick_6">
     <g id="line2d_6">
      <g>
       <use xlink:href="#m9bfd026f60" x="191.029438" y="260.2" style="stroke: #000000; stroke-width: 0.8"/>
      </g>
     </g>
     <g id="text_6">
      <!-- 285 -->
      <g transform="translate(181.485688 274.798437)scale(0.1 -0.1)">
       <defs>
        <path id="DejaVuSans-35" d="M 691 4666 
L 3169 4666 
L 3169 4134 
L 1269 4134 
L 1269 2991 
Q 1406 3038 1543 3061 
Q 1681 3084 1819 3084 
Q 2600 3084 3056 2656 
Q 3513 2228 3513 1497 
Q 3513 744 3044 326 
Q 2575 -91 1722 -91 
Q 1428 -91 1123 -41 
Q 819 9 494 109 
L 494 744 
Q 775 591 1075 516 
Q 1375 441 1709 441 
Q 2250 441 2565 725 
Q 2881 1009 2881 1497 
Q 2881 1984 2565 2268 
Q 2250 2553 1709 2553 
Q 1456 2553 1204 2497 
Q 953 2441 691 2322 
L 691 4666 
z
" transform="scale(0.015625)"/>
       </defs>
       <use xlink:href="#DejaVuSans-32"/>
       <use xlink:href="#DejaVuSans-38" x="63.623047"/>
       <use xlink:href="#DejaVuSans-35" x="127.246094"/>
      </g>
     </g>
    </g>
    <g id="xtick_7">
     <g id="line2d_7">
      <g>
       <use xlink:href="#m9bfd026f60" x="146.883989" y="260.2" style="stroke: #000000; stroke-width: 0.8"/>
      </g>
     </g>
     <g id="text_7">
      <!-- 286 -->
      <g transform="translate(137.340239 274.798437)scale(0.1 -0.1)">
       <defs>
        <path id="DejaVuSans-36" d="M 2113 2584 
Q 1688 2584 1439 2293 
Q 1191 2003 1191 1497 
Q 1191 994 1439 701 
Q 1688 409 2113 409 
Q 2538 409 2786 701 
Q 3034 994 3034 1497 
Q 3034 2003 2786 2293 
Q 2538 2584 2113 2584 
z
M 3366 4563 
L 3366 3988 
Q 3128 4100 2886 4159 
Q 2644 4219 2406 4219 
Q 1781 4219 1451 3797 
Q 1122 3375 1075 2522 
Q 1259 2794 1537 2939 
Q 1816 3084 2150 3084 
Q 2853 3084 3261 2657 
Q 3669 2231 3669 1497 
Q 3669 778 3244 343 
Q 2819 -91 2113 -91 
Q 1303 -91 875 529 
Q 447 1150 447 2328 
Q 447 3434 972 4092 
Q 1497 4750 2381 4750 
Q 2619 4750 2861 4703 
Q 3103 4656 3366 4563 
z
" transform="scale(0.015625)"/>
       </defs>
       <use xlink:href="#DejaVuSans-32"/>
       <use xlink:href="#DejaVuSans-38" x="63.623047"/>
       <use xlink:href="#DejaVuSans-36" x="127.246094"/>
      </g>
     </g>
    </g>
    <g id="xtick_8">
     <g id="line2d_8">
      <g>
       <use xlink:href="#m9bfd026f60" x="102.738539" y="260.2" style="stroke: #000000; stroke-width: 0.8"/>
      </g>
     </g>
     <g id="text_8">
      <!-- 287 -->
      <g transform="translate(93.194789 274.798437)scale(0.1 -0.1)">
       <defs>
        <path id="DejaVuSans-37" d="M 525 4666 
L 3525 4666 
L 3525 4397 
L 1831 0 
L 1172 0 
L 2766 4134 
L 525 4134 
L 525 4666 
z
" transform="scale(0.015625)"/>
       </defs>
       <use xlink:href="#DejaVuSans-32"/>
       <use xlink:href="#DejaVuSans-38" x="63.623047"/>
       <use xlink:href="#DejaVuSans-37" x="127.246094"/>
      </g>
     </g>
    </g>
    <g id="xtick_9">
     <g id="line2d_9">
      <g>
       <use xlink:href="#m9bfd026f60" x="58.59309" y="260.2" style="stroke: #000000; stroke-width: 0.8"/>
      </g>
     </g>
     <g id="text_9">
      <!-- 288 -->
      <g transform="translate(49.04934 274.798437)scale(0.1 -0.1)">
       <use xlink:href="#DejaVuSans-32"/>
       <use xlink:href="#DejaVuSans-38" x="63.623047"/>
       <use xlink:href="#DejaVuSans-38" x="127.246094"/>
      </g>
     </g>
    </g>
   </g>
   <g id="matplotlib.axis_2"/>
   <g id="line2d_10">
    <path d="M 115.982174 95.597152 
L 135.847626 95.166546 
L 146.883989 94.741954 
L 155.713079 94.184544 
L 162.334896 93.534914 
L 166.749441 92.934646 
L 171.163986 92.152908 
L 175.578531 91.12886 
L 179.993076 89.747709 
L 182.200348 88.853622 
L 184.407621 87.759248 
L 186.614893 86.392007 
L 188.822166 84.657915 
L 191.029438 82.445423 
L 193.236711 79.635697 
L 195.443983 76.122937 
L 197.651255 71.842634 
L 199.858528 66.805412 
L 202.0658 61.133389 
L 206.480345 49.099561 
L 208.687618 43.731686 
L 210.89489 39.640531 
L 213.102163 37.419824 
L 215.309435 37.409091 
L 217.516708 39.549297 
L 219.72398 43.396433 
L 221.931253 48.283937 
L 226.345798 58.512263 
L 228.55307 62.849847 
L 230.760343 66.290869 
L 232.967615 68.756142 
L 235.174887 70.297252 
L 237.38216 71.060634 
L 239.589432 71.251534 
L 241.796705 71.101158 
L 246.21125 70.659995 
L 248.418522 70.717276 
L 250.625795 71.092067 
L 252.833067 71.797291 
L 255.04034 72.787168 
L 259.454885 75.267337 
L 263.86943 77.77182 
L 266.076702 78.843401 
L 268.283975 79.737554 
L 270.491247 80.441245 
L 272.69852 80.961922 
L 274.905792 81.323898 
L 279.320337 81.722894 
L 285.942154 82.155404 
L 290.356699 82.738947 
L 294.771244 83.703633 
L 299.185789 85.015401 
L 305.807607 87.358741 
L 312.429424 89.715169 
L 316.843969 91.102728 
L 321.258514 92.270986 
L 325.673059 93.203768 
L 330.087604 93.91563 
L 334.502149 94.439636 
L 341.123966 94.961101 
L 349.953056 95.350277 
L 363.196691 95.643367 
L 387.476688 95.911851 
L 398.51305 95.989232 
L 398.51305 95.989232 
" clip-path="url(#p15fd24f504)" style="fill: none; stroke: #808080; stroke-width: 1.5; stroke-linecap: square"/>
   </g>
   <g id="line2d_11">
    <path d="M 65.214907 117.980496 
L 102.738539 117.683306 
L 124.811264 117.293338 
L 135.847626 116.924714 
L 144.676716 116.414914 
L 151.298534 115.794001 
L 155.713079 115.206613 
L 160.127623 114.430877 
L 164.542168 113.401517 
L 168.956713 111.999776 
L 171.163986 111.095218 
L 173.371258 110.003407 
L 175.578531 108.674236 
L 177.785803 107.05084 
L 179.993076 105.07481 
L 182.200348 102.694966 
L 184.407621 99.878778 
L 186.614893 96.626247 
L 188.822166 92.983921 
L 195.443983 81.119636 
L 197.651255 77.653315 
L 199.858528 74.952456 
L 202.0658 73.316826 
L 204.273073 72.942802 
L 206.480345 73.86105 
L 208.687618 75.923166 
L 210.89489 78.844606 
L 215.309435 85.891811 
L 217.516708 89.399313 
L 219.72398 92.597411 
L 221.931253 95.361794 
L 224.138525 97.643286 
L 226.345798 99.454154 
L 228.55307 100.851569 
L 230.760343 101.919099 
L 232.967615 102.74929 
L 237.38216 104.022833 
L 246.21125 106.176949 
L 250.625795 107.093336 
L 255.04034 107.748431 
L 259.454885 108.078919 
L 263.86943 108.119804 
L 277.113064 107.910756 
L 281.527609 108.236732 
L 285.942154 108.880426 
L 290.356699 109.798948 
L 296.978517 111.482231 
L 305.807607 113.745499 
L 310.222152 114.708729 
L 314.636696 115.508614 
L 319.051241 116.140852 
L 325.673059 116.809955 
L 332.294876 117.223507 
L 341.123966 117.531699 
L 356.574873 117.781522 
L 356.574873 117.781522 
" clip-path="url(#p15fd24f504)" style="fill: none; stroke: #808080; stroke-width: 1.5; stroke-linecap: square"/>
   </g>
   <g id="line2d_12">
    <path d="M 87.287632 139.744539 
L 89.494904 139.725392 
L 91.702177 139.705134 
L 93.909449 139.683678 
L 96.116722 139.660925 
L 98.323994 139.636766 
L 100.531267 139.611081 
L 102.738539 139.583732 
L 104.945812 139.554568 
L 107.153084 139.523411 
L 109.360357 139.49006 
L 111.567629 139.454277 
L 113.774902 139.415783 
L 115.982174 139.374245 
L 118.189446 139.329257 
L 120.396719 139.280327 
L 122.603991 139.226851 
L 124.811264 139.168082 
L 127.018536 139.103104 
L 129.225809 139.030786 
L 131.433081 138.94976 
L 133.640354 138.858362 
L 135.847626 138.754621 
L 138.054899 138.636215 
L 140.262171 138.500449 
L 142.469444 138.344268 
L 144.676716 138.164244 
L 146.883989 137.956586 
L 149.091261 137.717145 
L 151.298534 137.441266 
L 153.505806 137.12369 
L 155.713079 136.758121 
L 157.920351 136.336608 
L 160.127623 135.848547 
L 162.334896 135.279352 
L 164.542168 134.608825 
L 166.749441 133.809464 
L 168.956713 132.845227 
L 171.163986 131.671284 
L 173.371258 130.235547 
L 175.578531 128.482803 
L 177.785803 126.361873 
L 179.993076 123.835705 
L 182.200348 120.893564 
L 184.407621 117.564805 
L 186.614893 113.930802 
L 188.822166 110.134595 
L 191.029438 106.385045 
L 193.236711 102.950047 
L 195.443983 100.134516 
L 197.651255 98.234277 
L 199.858528 97.469691 
L 202.0658 97.920929 
L 204.273073 99.498621 
L 206.480345 101.969699 
L 208.687618 105.02191 
L 210.89489 108.334022 
L 213.102163 111.62631 
L 215.309435 114.686955 
L 217.516708 117.380148 
L 219.72398 119.642473 
L 221.931253 121.47185 
L 224.138525 122.912528 
L 226.345798 124.037009 
L 228.55307 124.929191 
L 230.760343 125.668477 
L 232.967615 126.319378 
L 235.174887 126.925811 
L 237.38216 127.51045 
L 239.589432 128.078441 
L 241.796705 128.622556 
L 244.003977 129.129104 
L 246.21125 129.582335 
L 248.418522 129.96821 
L 250.625795 130.276936 
L 252.833067 130.504253 
L 255.04034 130.651946 
L 257.247612 130.727725 
L 259.454885 130.744504 
L 261.662157 130.719292 
L 263.86943 130.671901 
L 266.076702 130.623305 
L 268.283975 130.59415 
L 270.491247 130.603186 
L 272.69852 130.665877 
L 274.905792 130.793407 
L 277.113064 130.992039 
L 279.320337 131.263023 
L 281.527609 131.603018 
L 283.734882 132.004807 
L 285.942154 132.458334 
L 288.149427 132.95175 
L 290.356699 133.472339 
L 292.563972 134.007429 
L 294.771244 134.545005 
L 296.978517 135.074181 
L 299.185789 135.585602 
L 301.393062 136.071604 
L 303.600334 136.526292 
L 305.807607 136.94556 
L 308.014879 137.326956 
L 310.222152 137.669524 
L 312.429424 137.973639 
L 314.636696 138.240691 
L 316.843969 138.472926 
L 319.051241 138.673103 
L 321.258514 138.844398 
L 323.465786 138.990076 
L 325.673059 139.113433 
L 327.880331 139.217608 
L 330.087604 139.305541 
L 332.294876 139.379869 
L 334.502149 139.442925 
L 336.709421 139.496724 
L 338.916694 139.542973 
L 341.123966 139.583093 
L 343.331239 139.618248 
L 345.538511 139.649379 
L 347.745784 139.677236 
L 349.953056 139.702415 
L 352.160328 139.725381 
" clip-path="url(#p15fd24f504)" style="fill: none; stroke: #808080; stroke-width: 1.5; stroke-linecap: square"/>
   </g>
   <g id="line2d_13">
    <path d="M 69.629452 161.807759 
L 104.945812 161.524738 
L 124.811264 161.17171 
L 135.847626 160.791046 
L 144.676716 160.245409 
L 151.298534 159.577796 
L 155.713079 158.947869 
L 160.127623 158.108916 
L 164.542168 156.962135 
L 166.749441 156.220209 
L 168.956713 155.323143 
L 171.163986 154.228999 
L 173.371258 152.889763 
L 175.578531 151.255492 
L 177.785803 149.28128 
L 179.993076 146.936921 
L 182.200348 144.218209 
L 184.407621 141.159098 
L 193.236711 128.038793 
L 195.443983 125.63102 
L 197.651255 124.094948 
L 199.858528 123.61129 
L 202.0658 124.225938 
L 204.273073 125.832215 
L 206.480345 128.201765 
L 208.687618 131.046319 
L 213.102163 137.057538 
L 215.309435 139.800344 
L 217.516708 142.19607 
L 219.72398 144.196743 
L 221.931253 145.80762 
L 224.138525 147.072292 
L 226.345798 148.057788 
L 228.55307 148.838365 
L 232.967615 150.046304 
L 239.589432 151.525074 
L 244.003977 152.363216 
L 248.418522 152.991336 
L 252.833067 153.344287 
L 257.247612 153.430154 
L 272.69852 153.216933 
L 277.113064 153.535812 
L 281.527609 154.128325 
L 285.942154 154.948024 
L 294.771244 156.918523 
L 301.393062 158.341139 
L 308.014879 159.49999 
L 314.636696 160.336511 
L 321.258514 160.885226 
L 330.087604 161.301828 
L 341.123966 161.551797 
L 363.196691 161.763542 
L 369.818508 161.802365 
L 369.818508 161.802365 
" clip-path="url(#p15fd24f504)" style="fill: none; stroke: #808080; stroke-width: 1.5; stroke-linecap: square"/>
   </g>
   <g id="line2d_14">
    <path d="M 91.702177 183.680145 
L 93.909449 183.665321 
L 96.116722 183.649613 
L 98.323994 183.632944 
L 100.531267 183.615237 
L 102.738539 183.596399 
L 104.945812 183.576329 
L 107.153084 183.55491 
L 109.360357 183.532008 
L 111.567629 183.507474 
L 113.774902 183.481123 
L 115.982174 183.452747 
L 118.189446 183.422089 
L 120.396719 183.388842 
L 122.603991 183.352631 
L 124.811264 183.312995 
L 127.018536 183.269372 
L 129.225809 183.221069 
L 131.433081 183.167242 
L 133.640354 183.106869 
L 135.847626 183.038726 
L 138.054899 182.961365 
L 140.262171 182.873077 
L 142.469444 182.771943 
L 144.676716 182.655749 
L 146.883989 182.522042 
L 149.091261 182.368074 
L 151.298534 182.190798 
L 153.505806 181.986744 
L 155.713079 181.751783 
L 157.920351 181.480733 
L 160.127623 181.166794 
L 162.334896 180.800623 
L 164.542168 180.369263 
L 166.749441 179.854917 
L 168.956713 179.233861 
L 171.163986 178.475901 
L 173.371258 177.544915 
L 175.578531 176.400993 
L 177.785803 175.004673 
L 179.993076 173.323372 
L 182.200348 171.339829 
L 184.407621 169.061294 
L 186.614893 166.52943 
L 188.822166 163.827804 
L 191.029438 161.086969 
L 193.236711 158.482929 
L 195.443983 156.227504 
L 197.651255 154.541712 
L 199.858528 153.613826 
L 202.0658 153.549426 
L 204.273073 154.336793 
L 206.480345 155.848442 
L 208.687618 157.878686 
L 210.89489 160.195335 
L 213.102163 162.582627 
L 215.309435 164.867515 
L 217.516708 166.92974 
L 219.72398 168.702603 
L 221.931253 170.166718 
L 224.138525 171.339938 
L 226.345798 172.265306 
L 228.55307 172.99813 
L 230.760343 173.594509 
L 232.967615 174.102306 
L 235.174887 174.556359 
L 237.38216 174.977106 
L 239.589432 175.372378 
L 241.796705 175.740772 
L 244.003977 176.07551 
L 246.21125 176.367775 
L 248.418522 176.609439 
L 250.625795 176.794907 
L 252.833067 176.922163 
L 255.04034 176.993309 
L 257.247612 177.014524 
L 259.454885 176.995587 
L 261.662157 176.949204 
L 263.86943 176.890028 
L 266.076702 176.833547 
L 268.283975 176.794973 
L 270.491247 176.788105 
L 272.69852 176.824325 
L 274.905792 176.91178 
L 277.113064 177.054982 
L 279.320337 177.254655 
L 281.527609 177.508083 
L 283.734882 177.809613 
L 285.942154 178.15147 
L 288.149427 178.524508 
L 290.356699 178.918947 
L 292.563972 179.325018 
L 294.771244 179.733466 
L 296.978517 180.135933 
L 299.185789 180.525203 
L 301.393062 180.89535 
L 303.600334 181.241829 
L 305.807607 181.561419 
L 308.014879 181.852227 
L 310.222152 182.113485 
L 312.429424 182.345413 
L 314.636696 182.549073 
L 316.843969 182.726129 
L 319.051241 182.878707 
L 321.258514 183.009195 
L 323.465786 183.120099 
L 325.673059 183.213923 
L 327.880331 183.293077 
L 330.087604 183.359797 
L 332.294876 183.416108 
L 334.502149 183.463794 
L 336.709421 183.504403 
L 338.916694 183.539239 
L 341.123966 183.569395 
L 343.331239 183.595763 
L 345.538511 183.619063 
L 347.745784 183.639875 
L 349.953056 183.658652 
L 352.160328 183.675751 
L 354.367601 183.691452 
L 356.574873 183.705971 
" clip-path="url(#p15fd24f504)" style="fill: none; stroke: #808080; stroke-width: 1.5; stroke-linecap: square"/>
   </g>
   <g id="line2d_15">
    <path d="M 100.531267 205.620603 
L 102.738539 205.606198 
L 104.945812 205.590868 
L 107.153084 205.574528 
L 109.360357 205.557083 
L 111.567629 205.538424 
L 113.774902 205.518425 
L 115.982174 205.49694 
L 118.189446 205.473798 
L 120.396719 205.448793 
L 122.603991 205.421678 
L 124.811264 205.392159 
L 127.018536 205.359873 
L 129.225809 205.324386 
L 131.433081 205.285161 
L 133.640354 205.241558 
L 135.847626 205.192806 
L 138.054899 205.137987 
L 140.262171 205.076024 
L 142.469444 205.005667 
L 144.676716 204.925479 
L 146.883989 204.833832 
L 149.091261 204.728887 
L 151.298534 204.608553 
L 153.505806 204.470399 
L 155.713079 204.311535 
L 157.920351 204.12829 
L 160.127623 203.915836 
L 162.334896 203.667502 
L 164.542168 203.373978 
L 166.749441 203.022318 
L 168.956713 202.594923 
L 171.163986 202.068858 
L 173.371258 201.415778 
L 175.578531 200.602958 
L 177.785803 199.595951 
L 179.993076 198.362975 
L 182.200348 196.881182 
L 184.407621 195.144123 
L 186.614893 193.169801 
L 188.822166 191.008238 
L 191.029438 188.74657 
L 193.236711 186.511406 
L 195.443983 184.464405 
L 197.651255 182.788142 
L 199.858528 181.657855 
L 202.0658 181.202017 
L 204.273073 181.464107 
L 206.480345 182.387394 
L 208.687618 183.831576 
L 210.89489 185.612215 
L 213.102163 187.54115 
L 215.309435 189.455956 
L 217.516708 191.234624 
L 219.72398 192.799501 
L 221.931253 194.115211 
L 224.138525 195.181887 
L 226.345798 196.025867 
L 228.55307 196.689505 
L 230.760343 197.220805 
L 232.967615 197.664782 
L 235.174887 198.05737 
L 237.38216 198.422501 
L 239.589432 198.772178 
L 241.796705 199.108614 
L 244.003977 199.427361 
L 246.21125 199.720425 
L 248.418522 199.978989 
L 250.625795 200.195364 
L 252.833067 200.364294 
L 255.04034 200.483741 
L 257.247612 200.555139 
L 259.454885 200.583287 
L 261.662157 200.575916 
L 263.86943 200.543092 
L 266.076702 200.496478 
L 268.283975 200.44843 
L 270.491247 200.41117 
L 272.69852 200.395892 
L 274.905792 200.411992 
L 277.113064 200.466458 
L 279.320337 200.563441 
L 281.527609 200.704201 
L 283.734882 200.887216 
L 285.942154 201.108618 
L 288.149427 201.362736 
L 290.356699 201.642733 
L 292.563972 201.941153 
L 294.771244 202.250438 
L 296.978517 202.563347 
L 299.185789 202.873267 
L 301.393062 203.174425 
L 303.600334 203.462024 
L 305.807607 203.732307 
L 308.014879 203.982558 
L 310.222152 204.211069 
L 312.429424 204.417028 
L 314.636696 204.600437 
L 316.843969 204.761963 
L 319.051241 204.902762 
L 321.258514 205.024389 
L 323.465786 205.128625 
L 325.673059 205.217375 
L 327.880331 205.292568 
L 330.087604 205.356066 
L 332.294876 205.409622 
" clip-path="url(#p15fd24f504)" style="fill: none; stroke: #808080; stroke-width: 1.5; stroke-linecap: square"/>
   </g>
   <g id="line2d_16">
    <path d="M 109.360357 227.616086 
L 111.567629 227.604656 
L 113.774902 227.592429 
L 115.982174 227.579322 
L 118.189446 227.565239 
L 120.396719 227.55007 
L 122.603991 227.533682 
L 124.811264 227.515918 
L 127.018536 227.49659 
L 129.225809 227.475471 
L 131.433081 227.452288 
L 133.640354 227.426714 
L 135.847626 227.398355 
L 138.054899 227.366745 
L 140.262171 227.33133 
L 142.469444 227.291468 
L 144.676716 227.246413 
L 146.883989 227.195312 
L 149.091261 227.13719 
L 151.298534 227.070929 
L 153.505806 226.99523 
L 155.713079 226.908527 
L 157.920351 226.808862 
L 160.127623 226.69365 
L 162.334896 226.559319 
L 164.542168 226.400893 
L 166.749441 226.211296 
L 168.956713 225.980737 
L 171.163986 225.696107 
L 173.371258 225.340559 
L 175.578531 224.893779 
L 177.785803 224.332994 
L 179.993076 223.635141 
L 182.200348 222.780252 
L 184.407621 221.755974 
L 186.614893 220.562744 
L 188.822166 219.21905 
L 191.029438 217.76603 
L 193.236711 216.270361 
L 195.443983 214.824536 
L 197.651255 213.541573 
L 199.858528 212.542934 
L 202.0658 211.93661 
L 204.273073 211.789848 
L 206.480345 212.108124 
L 208.687618 212.832406 
L 210.89489 213.857111 
L 213.102163 215.057493 
L 215.309435 216.314499 
L 217.516708 217.530115 
L 219.72398 218.634675 
L 221.931253 219.587489 
L 224.138525 220.374308 
L 226.345798 221.002263 
L 228.55307 221.493467 
L 230.760343 221.878137 
L 232.967615 222.188144 
L 235.174887 222.451757 
L 237.38216 222.690322 
L 239.589432 222.916938 
L 241.796705 223.137059 
L 244.003977 223.350226 
L 246.21125 223.552199 
L 248.418522 223.737009 
L 250.625795 223.898623 
L 252.833067 224.032121 
L 255.04034 224.134493 
L 257.247612 224.204939 
L 259.454885 224.245058 
L 261.662157 224.258606 
L 263.86943 224.251224 
L 266.076702 224.229987 
L 268.283975 224.202814 
L 270.491247 224.177887 
L 272.69852 224.163079 
L 274.905792 224.165379 
L 277.113064 224.190383 
L 279.320337 224.241914 
L 281.527609 224.321921 
L 283.734882 224.430383 
L 285.942154 224.565579 
L 288.149427 224.724367 
L 290.356699 224.902617 
L 292.563972 225.095554 
L 294.771244 225.298206 
L 296.978517 225.505645 
L 299.185789 225.713247 
L 301.393062 225.916885 
L 303.600334 226.113042 
L 305.807607 226.29886 
L 308.014879 226.472204 
L 310.222152 226.631583 
L 312.429424 226.776177 
L 314.636696 226.905725 
L 316.843969 227.020441 
L 319.051241 227.120947 
L 321.258514 227.208153 
L 323.465786 227.283176 
L 325.673059 227.347251 
L 327.880331 227.401658 
L 330.087604 227.447665 
" clip-path="url(#p15fd24f504)" style="fill: none; stroke: #808080; stroke-width: 1.5; stroke-linecap: square"/>
   </g>
   <g id="line2d_17">
    <path d="M 140.262171 249.590909 
L 142.469444 249.578975 
L 144.676716 249.565698 
L 146.883989 249.550862 
L 149.091261 249.53422 
L 151.298534 249.515485 
L 153.505806 249.494332 
L 155.713079 249.47038 
L 157.920351 249.443181 
L 160.127623 249.412186 
L 162.334896 249.376692 
L 164.542168 249.335755 
L 166.749441 249.288054 
L 168.956713 249.231708 
L 171.163986 249.16404 
L 173.371258 249.081303 
L 175.578531 248.978426 
L 177.785803 248.848849 
L 179.993076 248.68455 
L 182.200348 248.476407 
L 184.407621 248.214952 
L 186.614893 247.891692 
L 188.822166 247.500768 
L 191.029438 247.041064 
L 193.236711 246.518295 
L 195.443983 245.946909 
L 197.651255 245.351428 
L 199.858528 244.766691 
L 202.0658 244.236376 
L 204.273073 243.808587 
L 206.480345 243.527855 
L 208.687618 243.42441 
L 210.89489 243.50503 
L 213.102163 243.750484 
L 215.309435 244.121332 
L 217.516708 244.568682 
L 219.72398 245.044389 
L 221.931253 245.508025 
L 224.138525 245.930108 
L 226.345798 246.292884 
L 228.55307 246.589475 
L 230.760343 246.822027 
L 232.967615 246.999215 
L 235.174887 247.133524 
L 237.38216 247.238502 
L 239.589432 247.326505 
L 241.796705 247.407071 
L 244.003977 247.486125 
L 246.21125 247.56611 
L 248.418522 247.64661 
L 250.625795 247.725347 
L 252.833067 247.799166 
L 255.04034 247.864804 
L 257.247612 247.919478 
L 259.454885 247.96136 
L 261.662157 247.989672 
L 263.86943 248.004819 
L 266.076702 248.008335 
L 268.283975 248.002683 
L 270.491247 247.991085 
L 272.69852 247.97723 
L 274.905792 247.965018 
L 277.113064 247.958195 
L 279.320337 247.960112 
L 281.527609 247.973419 
L 283.734882 247.999967 
L 285.942154 248.040612 
L 288.149427 248.095297 
L 290.356699 248.163103 
L 292.563972 248.242442 
L 294.771244 248.331244 
L 296.978517 248.427121 
L 299.185789 248.527599 
L 301.393062 248.630244 
L 303.600334 248.732793 
L 305.807607 248.833206 
L 308.014879 248.929768 
L 310.222152 249.021091 
L 312.429424 249.106137 
L 314.636696 249.184202 
L 316.843969 249.254902 
L 319.051241 249.31813 
L 321.258514 249.374018 
L 323.465786 249.422888 
L 325.673059 249.465209 
L 327.880331 249.501539 
L 330.087604 249.532498 
L 332.294876 249.558725 
L 334.502149 249.580847 
" clip-path="url(#p15fd24f504)" style="fill: none; stroke: #808080; stroke-width: 1.5; stroke-linecap: square"/>
   </g>
   <g id="patch_3">
    <path d="M 48.55 260.2 
L 48.55 26.8 
" style="fill: none; stroke: #000000; stroke-width: 0.8; stroke-linejoin: miter; stroke-linecap: square"/>
   </g>
   <g id="patch_4">
    <path d="M 415.177958 260.2 
L 415.177958 26.8 
" style="fill: none; stroke: #000000; stroke-width: 0.8; stroke-linejoin: miter; stroke-linecap: square"/>
   </g>
   <g id="patch_5">
    <path d="M 48.55 260.2 
L 415.177958 260.2 
" style="fill: none; stroke: #000000; stroke-width: 0.8; stroke-linejoin: miter; stroke-linecap: square"/>
   </g>
   <g id="patch_6">
    <path d="M 48.55 26.8 
L 415.177958 26.8 
" style="fill: none; stroke: #000000; stroke-width: 0.8; stroke-linejoin: miter; stroke-linecap: square"/>
   </g>
   <g id="text_10">
    <!-- C1s -->
    <g transform="translate(220.731166 20.8)scale(0.12 -0.12)">
     <defs>
      <path id="DejaVuSans-43" d="M 4122 4306 
L 4122 3641 
Q 3803 3938 3442 4084 
Q 3081 4231 2675 4231 
Q 1875 4231 1450 3742 
Q 1025 3253 1025 2328 
Q 1025 1406 1450 917 
Q 1875 428 2675 428 
Q 3081 428 3442 575 
Q 3803 722 4122 1019 
L 4122 359 
Q 3791 134 3420 21 
Q 3050 -91 2638 -91 
Q 1578 -91 968 557 
Q 359 1206 359 2328 
Q 359 3453 968 4101 
Q 1578 4750 2638 4750 
Q 3056 4750 3426 4639 
Q 3797 4528 4122 4306 
z
" transform="scale(0.015625)"/>
      <path id="DejaVuSans-73" d="M 2834 3397 
L 2834 2853 
Q 2591 2978 2328 3040 
Q 2066 3103 1784 3103 
Q 1356 3103 1142 2972 
Q 928 2841 928 2578 
Q 928 2378 1081 2264 
Q 1234 2150 1697 2047 
L 1894 2003 
Q 2506 1872 2764 1633 
Q 3022 1394 3022 966 
Q 3022 478 2636 193 
Q 2250 -91 1575 -91 
Q 1294 -91 989 -36 
Q 684 19 347 128 
L 347 722 
Q 666 556 975 473 
Q 1284 391 1588 391 
Q 1994 391 2212 530 
Q 2431 669 2431 922 
Q 2431 1156 2273 1281 
Q 2116 1406 1581 1522 
L 1381 1569 
Q 847 1681 609 1914 
Q 372 2147 372 2553 
Q 372 3047 722 3315 
Q 1072 3584 1716 3584 
Q 2034 3584 2315 3537 
Q 2597 3491 2834 3397 
z
" transform="scale(0.015625)"/>
     </defs>
     <use xlink:href="#DejaVuSans-43"/>
     <use xlink:href="#DejaVuSans-31" x="69.824219"/>
     <use xlink:href="#DejaVuSans-73" x="133.447266"/>
    </g>
   </g>
  </g>
 </g>
 <defs>
  <clipPath id="p15fd24f504">
   <rect x="48.55" y="26.8" width="366.627958" height="233.4"/>
  </clipPath>
 </defs>
</svg>
